<svg width="20" height="20" viewBox="0 0 20 20" fill="none" xmlns="http://www.w3.org/2000/svg">
<path d="M4.99999 15C6.1985 14.8221 7.29308 14.2191 8.08401 13.3012C8.87493 12.3833 9.30946 11.2117 9.30832 10C9.31435 8.47903 9.86611 7.01075 10.8632 5.86222C11.8604 4.71369 13.2366 3.96122 14.7417 3.74167L16.9 3.43333C16.8417 3.36667 16.7917 3.3 16.725 3.23333C14.0083 0.516668 8.79166 1.33333 5.05832 5.05C1.89999 8.25 0.833324 12.5 2.29999 15.3833L4.99999 15Z" fill="#8D7B68"/>
<path d="M10.6083 9.99999C10.6029 11.5207 10.0526 12.9891 9.05728 14.1388C8.06197 15.2885 6.68756 16.0434 5.18333 16.2667L3.13333 16.5583L3.25833 16.7C5.975 19.4167 11.1917 18.6083 14.925 14.8917C18.0667 11.7583 19.1667 7.49999 17.7083 4.65833L14.925 5.05833C13.7341 5.23132 12.6444 5.82455 11.8528 6.73084C11.0611 7.63712 10.6197 8.79668 10.6083 9.99999Z" fill="#8D7B68"/>
</svg>
