<svg width="350" height="350" viewBox="0 0 350 350" fill="none" xmlns="http://www.w3.org/2000/svg">
<path d="M174.799 49.9427L211.64 124.092L293.545 136.217L234.41 194.168L248.188 275.811L174.799 237.477L101.41 275.811L115.189 194.168L56.0533 136.217L137.958 124.092L174.799 49.9427Z" fill="#F1DEC9"/>
<path d="M101.274 73.6518L174.663 111.985L248.052 73.6518L234.273 155.294L293.409 213.246L211.504 225.371L174.663 299.52L137.822 225.371L55.9172 213.246L115.053 155.294L101.274 73.6518Z" fill="#F1DEC9"/>
<path d="M123.986 168.565C123.918 167.878 123.625 167.344 123.108 166.963C122.591 166.582 121.889 166.392 121.003 166.392C120.401 166.392 119.892 166.477 119.477 166.648C119.063 166.812 118.744 167.043 118.523 167.338C118.307 167.634 118.199 167.969 118.199 168.344C118.188 168.656 118.253 168.929 118.395 169.162C118.543 169.395 118.744 169.597 119 169.767C119.256 169.932 119.551 170.077 119.886 170.202C120.222 170.321 120.58 170.423 120.96 170.509L122.528 170.884C123.29 171.054 123.989 171.281 124.625 171.565C125.261 171.849 125.813 172.199 126.278 172.614C126.744 173.028 127.105 173.517 127.361 174.08C127.622 174.642 127.756 175.287 127.761 176.014C127.756 177.082 127.483 178.009 126.943 178.793C126.409 179.571 125.636 180.176 124.625 180.608C123.619 181.034 122.406 181.247 120.986 181.247C119.577 181.247 118.349 181.031 117.304 180.599C116.264 180.168 115.452 179.528 114.866 178.682C114.287 177.83 113.983 176.776 113.955 175.52H117.526C117.565 176.105 117.733 176.594 118.028 176.986C118.33 177.372 118.73 177.665 119.23 177.864C119.736 178.057 120.307 178.153 120.943 178.153C121.568 178.153 122.111 178.062 122.571 177.881C123.037 177.699 123.398 177.446 123.653 177.122C123.909 176.798 124.037 176.426 124.037 176.006C124.037 175.614 123.92 175.284 123.688 175.017C123.46 174.75 123.125 174.523 122.682 174.335C122.244 174.148 121.707 173.977 121.071 173.824L119.17 173.347C117.699 172.989 116.537 172.429 115.685 171.668C114.832 170.906 114.409 169.881 114.415 168.591C114.409 167.534 114.69 166.611 115.259 165.821C115.832 165.031 116.619 164.415 117.619 163.972C118.619 163.528 119.756 163.307 121.028 163.307C122.324 163.307 123.455 163.528 124.42 163.972C125.392 164.415 126.148 165.031 126.688 165.821C127.227 166.611 127.506 167.526 127.523 168.565H123.986ZM132.854 181H128.899L134.925 163.545H139.68L145.697 181H141.743L137.371 167.534H137.234L132.854 181ZM132.607 174.139H141.947V177.02H132.607V174.139ZM147.798 181V163.545H151.489V177.957H158.972V181H147.798ZM161.415 181V163.545H173.177V166.588H165.106V170.747H172.572V173.79H165.106V177.957H173.211V181H161.415ZM187.938 181.239C186.734 181.239 185.66 181.017 184.717 180.574C183.779 180.131 183.035 179.52 182.484 178.741C181.933 177.963 181.646 177.071 181.623 176.065H185.202C185.242 176.741 185.526 177.29 186.055 177.71C186.583 178.131 187.211 178.341 187.938 178.341C188.518 178.341 189.029 178.213 189.472 177.957C189.921 177.696 190.271 177.335 190.521 176.875C190.776 176.409 190.904 175.875 190.904 175.273C190.904 174.659 190.773 174.119 190.512 173.653C190.256 173.187 189.901 172.824 189.447 172.562C188.992 172.301 188.472 172.168 187.887 172.162C187.376 172.162 186.879 172.267 186.396 172.477C185.918 172.687 185.546 172.974 185.279 173.338L181.998 172.75L182.825 163.545H193.495V166.562H185.867L185.415 170.935H185.518C185.825 170.503 186.288 170.145 186.907 169.861C187.526 169.577 188.219 169.435 188.987 169.435C190.038 169.435 190.975 169.682 191.799 170.176C192.623 170.67 193.273 171.349 193.751 172.213C194.228 173.071 194.464 174.06 194.458 175.179C194.464 176.355 194.191 177.401 193.64 178.315C193.094 179.224 192.33 179.94 191.347 180.463C190.37 180.98 189.234 181.239 187.938 181.239ZM203.876 181.384C202.41 181.378 201.148 181.017 200.092 180.301C199.04 179.585 198.231 178.548 197.663 177.19C197.1 175.832 196.822 174.199 196.827 172.29C196.827 170.386 197.109 168.764 197.671 167.423C198.239 166.082 199.049 165.062 200.1 164.364C201.157 163.659 202.415 163.307 203.876 163.307C205.336 163.307 206.592 163.659 207.643 164.364C208.7 165.068 209.512 166.091 210.08 167.432C210.648 168.767 210.93 170.386 210.924 172.29C210.924 174.205 210.64 175.841 210.072 177.199C209.509 178.557 208.702 179.594 207.651 180.31C206.6 181.026 205.342 181.384 203.876 181.384ZM203.876 178.324C204.876 178.324 205.674 177.821 206.271 176.815C206.867 175.81 207.163 174.301 207.157 172.29C207.157 170.966 207.021 169.864 206.748 168.983C206.481 168.102 206.1 167.44 205.606 166.997C205.117 166.554 204.54 166.332 203.876 166.332C202.881 166.332 202.086 166.83 201.489 167.824C200.893 168.818 200.592 170.307 200.586 172.29C200.586 173.631 200.719 174.75 200.987 175.648C201.259 176.54 201.643 177.21 202.137 177.659C202.631 178.102 203.211 178.324 203.876 178.324ZM223.109 177.727V176.807C223.109 176.108 223.257 175.466 223.553 174.881C223.854 174.29 224.288 173.818 224.857 173.466C225.43 173.108 226.129 172.929 226.953 172.929C227.788 172.929 228.49 173.105 229.058 173.457C229.632 173.81 230.064 174.281 230.354 174.872C230.649 175.457 230.797 176.102 230.797 176.807V177.727C230.797 178.426 230.649 179.071 230.354 179.662C230.058 180.247 229.624 180.716 229.05 181.068C228.476 181.426 227.777 181.605 226.953 181.605C226.118 181.605 225.416 181.426 224.848 181.068C224.28 180.716 223.848 180.247 223.553 179.662C223.257 179.071 223.109 178.426 223.109 177.727ZM225.589 176.807V177.727C225.589 178.131 225.686 178.511 225.879 178.869C226.078 179.227 226.436 179.406 226.953 179.406C227.47 179.406 227.822 179.23 228.01 178.878C228.203 178.526 228.3 178.142 228.3 177.727V176.807C228.3 176.392 228.209 176.006 228.027 175.648C227.845 175.29 227.487 175.111 226.953 175.111C226.442 175.111 226.087 175.29 225.888 175.648C225.689 176.006 225.589 176.392 225.589 176.807ZM214.152 167.739V166.818C214.152 166.114 214.303 165.469 214.604 164.884C214.905 164.293 215.339 163.821 215.908 163.469C216.482 163.116 217.175 162.94 217.987 162.94C218.828 162.94 219.533 163.116 220.101 163.469C220.669 163.821 221.101 164.293 221.396 164.884C221.692 165.469 221.839 166.114 221.839 166.818V167.739C221.839 168.443 221.689 169.088 221.388 169.673C221.092 170.259 220.658 170.727 220.084 171.08C219.516 171.426 218.817 171.599 217.987 171.599C217.158 171.599 216.456 171.423 215.882 171.071C215.314 170.713 214.882 170.244 214.587 169.665C214.297 169.08 214.152 168.437 214.152 167.739ZM216.649 166.818V167.739C216.649 168.153 216.746 168.537 216.939 168.889C217.138 169.241 217.487 169.418 217.987 169.418C218.51 169.418 218.865 169.241 219.053 168.889C219.246 168.537 219.342 168.153 219.342 167.739V166.818C219.342 166.403 219.251 166.017 219.07 165.659C218.888 165.301 218.527 165.122 217.987 165.122C217.482 165.122 217.132 165.304 216.939 165.668C216.746 166.031 216.649 166.415 216.649 166.818ZM215.277 181L227.277 163.545H229.51L217.51 181H215.277Z" fill="#311C10"/>
</svg>
