<svg width="40" height="40" viewBox="0 0 40 40" fill="none" xmlns="http://www.w3.org/2000/svg">
<path d="M9.99999 36.6667C9.08332 36.6667 8.29833 36.34 7.64499 35.6867C6.99166 35.0333 6.66555 34.2489 6.66666 33.3333V13.3333C6.66666 12.4167 6.99333 11.6317 7.64666 10.9783C8.29999 10.325 9.08444 9.9989 9.99999 10H13.3333C13.3333 8.16668 13.9861 6.59723 15.2917 5.29168C16.5972 3.98612 18.1667 3.33334 20 3.33334C21.8333 3.33334 23.4028 3.98612 24.7083 5.29168C26.0139 6.59723 26.6667 8.16668 26.6667 10H30C30.9166 10 31.7016 10.3267 32.355 10.98C33.0083 11.6333 33.3344 12.4178 33.3333 13.3333V33.3333C33.3333 34.25 33.0066 35.035 32.3533 35.6884C31.7 36.3417 30.9155 36.6678 30 36.6667H9.99999ZM15 18.3333C15.4722 18.3333 15.8683 18.1733 16.1883 17.8533C16.5083 17.5333 16.6678 17.1378 16.6667 16.6667V13.3333H13.3333V16.6667C13.3333 17.1389 13.4933 17.535 13.8133 17.855C14.1333 18.175 14.5289 18.3345 15 18.3333ZM16.6667 10H23.3333C23.3333 9.08334 23.0067 8.29834 22.3533 7.64501C21.7 6.99168 20.9155 6.66557 20 6.66668C19.0833 6.66668 18.2983 6.99334 17.645 7.64668C16.9917 8.30001 16.6655 9.08446 16.6667 10ZM25 18.3333C25.4722 18.3333 25.8683 18.1733 26.1883 17.8533C26.5083 17.5333 26.6678 17.1378 26.6667 16.6667V13.3333H23.3333V16.6667C23.3333 17.1389 23.4933 17.535 23.8133 17.855C24.1333 18.175 24.5289 18.3345 25 18.3333Z" fill="#8D7B68"/>
</svg>
